<?xml version="1.0" encoding="UTF-8"?><svg id="Layer_1" xmlns="http://www.w3.org/2000/svg" viewBox="0 0 1920 1080"><path d="m430.9,248.98l-3.72-3.44.95-.92,2.05,1.92v-5.84h1.44v5.84l2.05-1.92.95.92-3.72,3.44Z"/><path d="m492.49,248.98l-3.72-3.44.95-.92,2.05,1.92v-5.84h1.44v5.84l2.05-1.92.95.92-3.72,3.44Z"/><path d="m441.71,247.99l-5.06.19.02-1.32,2.81-.1-4.14-4.13,1.02-1.02,4.13,4.13.1-2.81h1.33s-.2,5.05-.2,5.05Z"/><path d="m462.4,242.94l.1,2.81,4.13-4.13,1.02,1.02-4.14,4.13,2.81.1.02,1.32-5.06-.19-.2-5.06h1.33Z"/></svg>